#!OML:ASF F:\VICON\USERDATA\INSTALL\rory3\rory3.ASF
:FULLY-SPECIFIED
:DEGREES
355
root 3.01683 18.265 13.5511 258.388 -86.3974 99.7869
lowerback 10.6745 -1.87868 -0.448285
upperback 1.40202 -2.46338 4.34659
thorax -4.30683 -1.23547 5.16368
lowerneck 5.6953 -17.437 -13.9173
upperneck 33.9787 -34.6457 12.181
head 16.2002 -16.704 1.87815
rclavicle -2.127e-014 1.59028e-014
rhumerus -26.9181 -12.5793 -75.3705
rradius 39.6454
rwrist -0.955189
rhand -19.0968 7.66493
rfingers 7.12502
rthumb 7.21168 -22.1922
lclavicle -2.127e-014 1.59028e-014
lhumerus -41.8821 18.6405 79.2245
lradius 23.7072
lwrist -10.3508
lhand -14.2 23.2661
lfingers 7.12502
lthumb 11.9363 52.9058
rfemur -10.7557 2.1383 19.2376
rtibia 34.2362
rfoot -9.33625 5.53532
rtoes 9.61636
lfemur -1.40348 -4.19945 -19.0022
ltibia 39.6153
lfoot -4.93311 -12.0131
ltoes -21.9613
356
root 3.11335 18.2689 13.5651 259.461 -86.3386 98.7794
lowerback 10.5398 -1.94343 -0.581235
upperback 1.28949 -2.5589 4.40414
thorax -4.33278 -1.27746 5.31066
lowerneck 5.77095 -17.4676 -14.0242
upperneck 33.987 -34.7638 12.1975
head 16.2421 -16.7703 1.87244
rclavicle 2.88238e-014 1.74931e-014
rhumerus -26.9836 -12.8034 -75.2967
rradius 39.4161
rwrist -0.797833
rhand -19.0068 7.51465
rfingers 7.12502
rthumb 7.29858 -22.3395
lclavicle 2.88238e-014 1.74931e-014
lhumerus -41.711 18.0918 79.8831
lradius 23.9979
lwrist -10.0661
lhand -12.7897 23.1967
lfingers 7.12502
lthumb 13.2959 52.7526
rfemur -11.1841 2.11167 19.1084
rtibia 34.2126
rfoot -9.03909 5.59648
rtoes 9.1
lfemur -0.496725 -3.99372 -19.0863
ltibia 39.4013
lfoot -4.28018 -12.501
ltoes -21.8284
357
root 3.21244 18.2715 13.5802 259.61 -86.3178 98.6268
lowerback 10.4934 -1.98332 -0.688721
upperback 1.20642 -2.61891 4.47124
thorax -4.38052 -1.30273 5.45226
lowerneck 5.83183 -17.527 -14.0585
upperneck 33.98 -34.8872 12.1644
head 16.2491 -16.8337 1.84174
rclavicle -2.98177e-014 3.49861e-014
rhumerus -27.0643 -12.9048 -75.2208
rradius 39.2286
rwrist -0.769114
rhand -18.8448 7.54918
rfingers 7.12502
rthumb 7.45495 -22.2995
lclavicle -2.98177e-014 3.49861e-014
lhumerus -41.3881 17.1789 80.7733
lradius 24.2204
lwrist -9.03694
lhand -13.2485 23.5425
lfingers 7.12502
lthumb 12.8536 53.1267
rfemur -11.5694 2.2082 19.0282
rtibia 34.2323
rfoot -8.82419 5.57323
rtoes 8.99761
lfemur 0.516898 -3.78435 -19.1605
ltibia 39.0636
lfoot -3.49358 -13.0922
ltoes -22.1821
358
root 3.31486 18.2724 13.6002 260.997 -86.2242 97.2192
lowerback 10.4412 -2.08478 -0.846963
upperback 1.14991 -2.76882 4.50676
thorax -4.38687 -1.37289 5.59975
lowerneck 5.86989 -17.5464 -14.0952
upperneck 33.9995 -34.9502 12.1207
head 16.2596 -16.8718 1.81821
rclavicle 2.04748e-014 -6.36111e-015
rhumerus -27.1177 -13.1362 -75.2092
rradius 39.05
rwrist -0.423248
rhand -18.7332 7.62992
rfingers 7.12502
rthumb 7.56266 -22.2149
lclavicle 2.04748e-014 -6.36111e-015
lhumerus -41.1593 16.9033 81.0975
lradius 24.5587
lwrist -9.35962
lhand -13.02 24.116
lfingers 7.12502
lthumb 13.0739 53.6862
rfemur -11.9645 2.34648 18.8696
rtibia 34.2827
rfoot -8.8235 5.25494
rtoes 7.50775
lfemur 1.59586 -3.75036 -19.3326
ltibia 38.6292
lfoot -2.358 -13.8152
ltoes -20.1792
359
root 3.41908 18.2627 13.6172 263.277 -86.0643 94.9335
lowerback 10.3583 -2.19362 -1.03806
upperback 1.10523 -2.93417 4.45351
thorax -4.36408 -1.45025 5.67067
lowerneck 5.98972 -17.5733 -13.9908
upperneck 33.8601 -35.0208 12.2103
head 16.1799 -16.9037 1.84628
rclavicle 1.11319e-014 1.90833e-014
rhumerus -27.1783 -13.5241 -75.3127
rradius 38.8389
rwrist 0.0213885
rhand -18.7752 7.61336
rfingers 7.12502
rthumb 7.52211 -22.2329
lclavicle 1.11319e-014 1.90833e-014
lhumerus -40.9111 16.9383 81.039
lradius 24.6983
lwrist -10.0568
lhand -14.1174 24.1615
lfingers 7.12502
lthumb 12.0159 53.7966
rfemur -12.377 2.45474 18.6528
rtibia 34.3241
rfoot -8.71086 4.79853
rtoes 6.07189
lfemur 2.57436 -3.47547 -19.5469
ltibia 38.1112
lfoot -1.80235 -14.4949
ltoes -20.7106
360
root 3.52463 18.258 13.6368 264.003 -85.9099 94.1747
lowerback 10.375 -2.27969 -1.18534
upperback 1.03475 -3.0622 4.39612
thorax -4.42949 -1.50733 5.71435
lowerneck 6.04123 -17.6149 -13.8303
upperneck 33.8406 -35.0837 12.139
head 16.1156 -16.9305 1.80298
rclavicle 5.96354e-014 -4.13472e-014
rhumerus -27.2746 -13.6048 -75.4562
rradius 38.6442
rwrist 0.144771
rhand -18.8478 7.50643
rfingers 7.12502
rthumb 7.45206 -22.3423
lclavicle 5.96354e-014 -4.13472e-014
lhumerus -40.6584 16.586 81.2767
lradius 24.9209
lwrist -9.85168
lhand -12.9828 22.9427
lfingers 7.12502
lthumb 13.1098 52.5106
rfemur -12.7558 2.52732 18.4132
rtibia 34.3749
rfoot -8.55342 4.63518
rtoes 7.11455
lfemur 3.62474 -3.39358 -19.8024
ltibia 37.5081
lfoot -0.910293 -14.8223
ltoes -19.9235
361
root 3.62918 18.2614 13.6602 263.786 -85.7635 94.3982
lowerback 10.355 -2.3393 -1.29631
upperback 0.944641 -3.14994 4.369
thorax -4.49924 -1.54453 5.76297
lowerneck 6.06363 -17.6475 -13.8014
upperneck 33.9006 -35.1763 12.0679
head 16.1342 -16.9755 1.75451
rclavicle -1.33186e-014 -3.33958e-014
rhumerus -27.3844 -13.621 -75.5034
rradius 38.3872
rwrist 0.168569
rhand -18.8554 7.62787
rfingers 7.12502
rthumb 7.4447 -22.2211
lclavicle -1.33186e-014 -3.33958e-014
lhumerus -40.4002 15.717 81.9023
lradius 25.3646
lwrist -9.00692
lhand -14.5541 23.4806
lfingers 7.12502
lthumb 11.5948 53.1398
rfemur -13.1651 2.5948 18.1562
rtibia 34.4243
rfoot -8.42365 4.62175
rtoes 8.87653
lfemur 4.66447 -3.48127 -20.069
ltibia 36.8017
lfoot 0.655805 -14.9166
ltoes -16.483
362
root 3.73593 18.2535 13.6816 264.043 -85.5866 94.1571
lowerback 10.2831 -2.39503 -1.4124
upperback 0.876417 -3.23505 4.31164
thorax -4.51855 -1.58175 5.77747
lowerneck 6.13001 -17.6886 -13.8798
upperneck 33.9297 -35.3249 12.0929
head 16.1919 -17.0498 1.73957
rclavicle 2.00773e-014 -7.95139e-015
rhumerus -27.4895 -13.6825 -75.5654
rradius 38.1264
rwrist 0.0982156
rhand -18.9136 7.81129
rfingers 7.12502
rthumb 7.38854 -22.0397
lclavicle 2.00773e-014 -7.95139e-015
lhumerus -40.0606 14.5325 82.7799
lradius 25.9743
lwrist -7.53893
lhand -14.1185 23.0835
lfingers 7.12502
lthumb 12.0149 52.7186
rfemur -13.599 2.79251 17.8844
rtibia 34.4852
rfoot -8.28652 4.47172
rtoes 9.41931
lfemur 5.66337 -3.12732 -20.3363
ltibia 36.0338
lfoot 1.07455 -15.3051
ltoes -19.0124
363
root 3.84421 18.2457 13.7012 265.2 -85.4206 92.9545
lowerback 10.3141 -2.47188 -1.51638
upperback 0.817234 -3.34776 4.21654
thorax -4.58557 -1.63182 5.75478
lowerneck 6.24083 -17.7073 -13.881
upperneck 33.9072 -35.4464 12.1787
head 16.2099 -17.1093 1.75477
rclavicle -9.93923e-016 4.77083e-015
rhumerus -27.7254 -14.019 -75.6664
rradius 38.1137
rwrist 0.128716
rhand -18.8027 7.69818
rfingers 7.12502
rthumb 7.49563 -22.149
lclavicle -9.93923e-016 4.77083e-015
lhumerus -39.7053 13.8586 83.191
lradius 26.3119
lwrist -7.1415
lhand -14.3704 22.9109
lfingers 7.12502
lthumb 11.7719 52.5601
rfemur -13.9953 2.95936 17.6572
rtibia 34.6162
rfoot -8.23829 4.19962
rtoes 8.97028
lfemur 6.71161 -2.98667 -20.5961
ltibia 35.1944
lfoot 2.00315 -15.5618
ltoes -18.2195
364
root 3.95924 18.2366 13.7218 266.28 -85.2153 91.8344
lowerback 10.4009 -2.55617 -1.67538
upperback 0.748637 -3.47607 4.14534
thorax -4.6872 -1.68742 5.79536
lowerneck 6.3587 -17.6711 -13.9666
upperneck 33.825 -35.487 12.346
head 16.2218 -17.1402 1.82677
rclavicle 2.78299e-015 4.77083e-015
rhumerus -27.9406 -14.2265 -75.7979
rradius 38.0205
rwrist -0.207506
rhand -19.0953 7.66136
rfingers 7.12502
rthumb 7.21318 -22.1957
lclavicle 2.78299e-015 4.77083e-015
lhumerus -39.3589 13.2805 83.5546
lradius 26.7343
lwrist -7.01191
lhand -15.2194 23.5118
lfingers 7.12502
lthumb 10.9531 53.2061
rfemur -14.483 2.88881 17.3732
rtibia 34.8725
rfoot -8.21656 4.072
rtoes 8.41135
lfemur 7.71384 -2.83358 -20.8883
ltibia 34.2783
lfoot 2.69192 -15.8179
ltoes -19.1012
365
root 4.08037 18.226 13.7396 268.778 -84.5132 89.5544
lowerback 10.2138 -2.72871 -2.49561
upperback 0.615559 -3.79337 4.08105
thorax -4.63912 -1.82432 6.22796
lowerneck 6.53856 -17.5259 -14.3195
upperneck 33.6549 -35.3331 12.5608
head 16.2072 -17.1214 1.99418
rclavicle 2.24627e-014 1.11319e-014
rhumerus -28.004 -13.8303 -75.9516
rradius 37.8221
rwrist -0.802452
rhand -19.7513 7.93328
rfingers 7.12502
rthumb 6.5799 -21.9445
lclavicle 2.24627e-014 1.11319e-014
lhumerus -39.0477 12.7928 84.1369
lradius 27.3255
lwrist -6.30103
lhand -16.9919 24.5214
lfingers 7.12502
lthumb 9.24319 54.2988
rfemur -15.2723 2.74163 16.4789
rtibia 35.1103
rfoot -8.15011 3.99559
rtoes 8.24942
lfemur 8.31536 -2.67567 -21.6898
ltibia 33.3633
lfoot 3.34747 -15.9562
ltoes -20.0894
366
root 4.2036 18.2123 13.7585 271.447 -83.6808 87.2585
lowerback 9.84877 -2.86965 -3.42379
upperback 0.446657 -4.0751 3.96154
thorax -4.5225 -1.94208 6.64489
lowerneck 6.6261 -17.5009 -14.4644
upperneck 33.6251 -35.3029 12.5385
head 16.193 -17.1349 2.01765
rclavicle 5.14852e-014 -6.52014e-014
rhumerus -28.1221 -13.9732 -75.8951
rradius 37.6467
rwrist -0.307442
rhand -19.617 7.84361
rfingers 7.12502
rthumb 6.70958 -22.0301
lclavicle 5.14852e-014 -6.52014e-014
lhumerus -38.7048 12.2048 84.5939
lradius 27.8481
lwrist -6.10646
lhand -17.2645 24.6931
lfingers 7.12502
lthumb 8.9801 54.4819
rfemur -16.2028 2.74463 15.3984
rtibia 35.2403
rfoot -7.853 3.82209
rtoes 10.0664
lfemur 8.69373 -2.63204 -22.6417
ltibia 32.4678
lfoot 4.09961 -15.9797
ltoes -19.4039
367
root 4.32359 18.1969 13.7788 272.365 -83.9156 86.1692
lowerback 9.98203 -2.94582 -3.26725
upperback 0.516613 -4.16315 4.03646
thorax -4.51689 -1.99212 6.65296
lowerneck 6.63598 -17.5677 -14.3462
upperneck 33.5463 -35.3814 12.5329
head 16.1372 -17.1587 1.99272
rclavicle 3.08116e-014 -4.29375e-014
rhumerus -28.3095 -14.2464 -75.8673
rradius 37.6286
rwrist 0.399451
rhand -19.2355 7.59459
rfingers 7.12502
rthumb 7.07784 -22.2671
lclavicle 3.08116e-014 -4.29375e-014
lhumerus -38.2149 11.374 84.9734
lradius 28.3261
lwrist -6.16663
lhand -16.5366 24.1441
lfingers 7.12502
lthumb 9.68247 53.9015
rfemur -16.5408 3.02407 15.5838
rtibia 35.4113
rfoot -7.71037 3.50293
rtoes 12.2211
lfemur 9.77515 -2.4373 -22.3921
ltibia 31.4185
lfoot 4.55978 -16.2039
ltoes -19.1049
368
root 4.442 18.1794 13.806 272.374 -84.8448 85.5645
lowerback 10.536 -3.05877 -2.39794
upperback 0.72103 -4.22651 4.30475
thorax -4.64481 -2.04633 6.48597
lowerneck 6.51172 -17.5588 -14.3324
upperneck 33.648 -35.3795 12.4555
head 16.188 -17.1485 1.94451
rclavicle -1.0138e-014 -3.18055e-014
rhumerus -28.6376 -14.1778 -75.9517
rradius 37.9266
rwrist 0.367286
rhand -19.2082 7.47399
rfingers 7.12502
rthumb 7.10415 -22.3868
lclavicle -1.0138e-014 -3.18055e-014
lhumerus -37.7341 10.6178 85.3528
lradius 28.9454
lwrist -5.87515
lhand -16.3929 24.2177
lfingers 7.12502
lthumb 9.82114 53.9686
rfemur -16.3429 3.37719 16.5738
rtibia 35.4866
rfoot -7.58909 3.15164
rtoes 13.3771
lfemur 11.3786 -2.09527 -21.3662
ltibia 30.2623
lfoot 4.69788 -16.6988
ltoes -19.6777
369
root 4.56342 18.16 13.8269 273.567 -84.0039 84.4176
lowerback 10.4155 -3.15808 -3.39324
upperback 0.731342 -4.47589 4.09993
thorax -4.47576 -2.15442 6.85398
lowerneck 6.45037 -17.5529 -14.1731
upperneck 33.672 -35.3708 12.413
head 16.1623 -17.13 1.91185
rclavicle -1.15295e-014 -1.11319e-014
rhumerus -28.8708 -14.478 -76.0974
rradius 38.0843
rwrist 0.58922
rhand -18.9989 7.37095
rfingers 7.12502
rthumb 7.30617 -22.4829
lclavicle -1.15295e-014 -1.11319e-014
lhumerus -37.2359 10.1445 85.4366
lradius 29.559
lwrist -6.04966
lhand -16.2851 24.3695
lfingers 7.12502
lthumb 9.92513 54.1155
rfemur -16.8697 3.36335 15.5001
rtibia 35.5467
rfoot -7.35717 3.12567
rtoes 13.7475
lfemur 12.214 -1.89501 -22.3429
ltibia 29.0606
lfoot 4.80967 -17.0036
ltoes -20.796
